<svg width="50" height="46" viewBox="0 0 50 46" fill="none" xmlns="http://www.w3.org/2000/svg">
<g clip-path="url(#clip0_203_151)">
<path d="M35.7356 10.7809C35.7356 16.7325 30.8876 21.5619 24.9081 21.5619C18.925 21.5619 14.0768 16.7362 14.0768 10.7809C14.0768 4.8256 18.925 0 24.9081 0C30.8876 0 35.7356 4.8256 35.7356 10.7809ZM10.8372 24.2551C4.85779 24.2551 0.00585938 29.0807 0.00585938 35.0324C0.00585938 40.984 4.85402 45.8132 10.8372 45.8132C16.8203 45.8132 21.6685 40.9876 21.6685 35.0324C21.6685 29.0807 16.8203 24.2551 10.8372 24.2551ZM38.9753 24.2551C32.9922 24.2551 28.144 29.0807 28.144 35.0361C28.144 40.9913 32.9922 45.817 38.9753 45.817C44.9548 45.817 49.8068 40.9913 49.8068 35.0361C49.8068 29.0807 44.9585 24.2551 38.9753 24.2551Z" fill="#F06A6A"/>
</g>
<defs>
<clipPath id="clip0_203_151">
<rect width="50" height="46" fill="white"/>
</clipPath>
</defs>
</svg>
