<svg width="31" height="46" viewBox="0 0 31 46" fill="none" xmlns="http://www.w3.org/2000/svg">
<g clip-path="url(#clip0_203_114)">
<mask id="mask0_203_114" style="mask-type:luminance" maskUnits="userSpaceOnUse" x="0" y="0" width="31" height="46">
<path d="M30.6173 0H0V46H30.6173V0Z" fill="white"/>
</mask>
<g mask="url(#mask0_203_114)">
<path d="M7.6543 46.0001C11.8795 46.0001 15.3087 42.5654 15.3087 38.3334V30.6667H7.6543C3.42913 30.6667 0 34.1014 0 38.3334C0 42.5654 3.42913 46.0001 7.6543 46.0001Z" fill="#0ACF83"/>
<path d="M0 22.9999C0 18.7679 3.42913 15.3333 7.6543 15.3333H15.3087V30.6666H7.6543C3.42913 30.6666 0 27.2319 0 22.9999Z" fill="#A259FF"/>
<path d="M0 7.66664C0 3.43466 3.42913 0 7.6543 0H15.3087V15.3333H7.6543C3.42913 15.3333 0 11.8986 0 7.66664Z" fill="#F24E1E"/>
<path d="M15.3086 0H22.963C27.1881 0 30.6173 3.43466 30.6173 7.66664C30.6173 11.8986 27.1881 15.3333 22.963 15.3333H15.3086V0Z" fill="#FF7262"/>
<path d="M30.6173 22.9999C30.6173 27.2319 27.1881 30.6666 22.963 30.6666C18.7378 30.6666 15.3086 27.2319 15.3086 22.9999C15.3086 18.7679 18.7378 15.3333 22.963 15.3333C27.1881 15.3333 30.6173 18.7679 30.6173 22.9999Z" fill="#1ABCFE"/>
</g>
</g>
<defs>
<clipPath id="clip0_203_114">
<rect width="31" height="46" fill="white"/>
</clipPath>
</defs>
</svg>
