<svg width="44" height="46" viewBox="0 0 44 46" fill="none" xmlns="http://www.w3.org/2000/svg">
<g clip-path="url(#clip0_203_146)">
<path d="M2.76581 1.98039L28.203 0.104347C31.3275 -0.163414 32.1303 0.0171529 34.0948 1.44332L42.2147 7.15591C43.5542 8.13821 44 8.40615 44 9.47582V40.8051C44 42.7685 43.2859 43.9298 40.7866 44.1075L11.2475 45.8932C9.37183 45.982 8.47859 45.7142 7.49633 44.464L1.51697 36.6994C0.444469 35.2701 0 34.2003 0 32.9501V5.10221C0 3.49702 0.71414 2.15804 2.76581 1.98039Z" fill="#FAF9FE"/>
<path d="M28.203 0.104347L2.76581 1.98039C0.71414 2.15804 0 3.49702 0 5.10221V32.9502C0 34.2005 0.444297 35.2701 1.51697 36.6994L7.49633 44.464C8.47859 45.7142 9.37183 45.982 11.2475 45.8932L40.7866 44.1075C43.2843 43.9298 44 42.7685 44 40.8051V9.47582C44 8.46124 43.5985 8.16894 42.417 7.30283L42.2134 7.15591L34.0948 1.44332C32.1303 0.0171529 31.3277 -0.163414 28.203 0.104347ZM11.9156 8.96312C9.50366 9.12532 8.95658 9.16206 7.58673 8.04947L4.10369 5.28278C3.74962 4.92474 3.92734 4.47778 4.8192 4.38904L29.2725 2.60482C31.3259 2.4258 32.3955 3.14035 33.1985 3.76478L37.3924 6.79941C37.5717 6.88952 38.0177 7.42367 37.4813 7.42367L12.2282 8.94167L11.9156 8.96312ZM9.1037 40.5373V13.9411C9.1037 12.7796 9.46069 12.2441 10.5303 12.1538L39.5347 10.4581C40.5185 10.3694 40.963 10.9936 40.963 12.1538V38.5724C40.963 39.7339 40.7835 40.7162 39.1777 40.8051L11.4221 42.4118C9.8163 42.5006 9.1037 41.9666 9.1037 40.5373ZM36.5023 15.3671C36.68 16.1705 36.5023 16.974 35.6978 17.0658L34.36 17.3305V36.967C33.1985 37.5913 32.1289 37.9479 31.2354 37.9479C29.8074 37.9479 29.4503 37.501 28.3807 36.1635L19.6326 22.4186V35.7168L22.3998 36.3426C22.3998 36.3426 22.3998 37.9495 20.1673 37.9495L14.0118 38.306C13.8325 37.9479 14.0118 37.0557 14.6357 36.8783L16.2429 36.4328V18.8502L14.0119 18.6696C13.8325 17.8664 14.2783 16.7062 15.5289 16.6159L22.1334 16.1722L31.2355 30.0946V17.7776L28.9156 17.5112C28.7363 16.5272 29.4503 15.8127 30.3421 15.7255L36.5021 15.3672L36.5023 15.3671Z" fill="black"/>
</g>
<defs>
<clipPath id="clip0_203_146">
<rect width="44" height="46" fill="white"/>
</clipPath>
</defs>
</svg>
