<svg width="48" height="46" viewBox="0 0 48 46" fill="none" xmlns="http://www.w3.org/2000/svg">
<g clip-path="url(#clip0_203_126)">
<mask id="mask0_203_126" style="mask-type:luminance" maskUnits="userSpaceOnUse" x="0" y="0" width="48" height="46">
<path d="M47.4513 0H0V46H47.4513V0Z" fill="white"/>
</mask>
<g mask="url(#mask0_203_126)">
<path d="M39.0485 0H8.40283C3.76208 0 0 3.74052 0 8.35469V37.6453C0 42.2595 3.76208 46 8.40283 46H39.0485C43.6892 46 47.4513 42.2595 47.4513 37.6453V8.35469C47.4513 3.74052 43.6892 0 39.0485 0Z" fill="#001E36"/>
<path d="M10.6848 32.2579V12.0338C10.6848 11.8865 10.7485 11.8123 10.8758 11.8123C11.215 11.8123 11.5246 11.8073 11.9917 11.7965C12.4583 11.7861 12.9623 11.7755 13.5037 11.7648C14.0449 11.7544 14.6179 11.7439 15.2227 11.7332C15.8275 11.7227 16.4269 11.7175 17.0212 11.7173C18.6337 11.7173 19.9918 11.9177 21.0956 12.3187C22.0913 12.6536 22.9994 13.2049 23.7537 13.9328C24.3931 14.5636 24.8872 15.3249 25.202 16.1641C25.4998 16.9808 25.6506 17.8432 25.6477 18.7119C25.6477 20.4002 25.2551 21.7928 24.4699 22.8896C23.6795 23.991 22.5685 24.825 21.2867 25.2792C19.9497 25.7752 18.4641 25.9434 16.8302 25.9434C16.3632 25.9434 16.0342 25.9381 15.8434 25.9275C15.6524 25.9171 15.366 25.9118 14.984 25.9117V32.2263C14.9895 32.265 14.986 32.3044 14.9735 32.3415C14.9611 32.3786 14.9402 32.4123 14.9123 32.4399C14.8845 32.4675 14.8506 32.4883 14.8133 32.5007C14.776 32.5131 14.7364 32.5166 14.6974 32.5111H10.9076C10.759 32.5111 10.6848 32.427 10.6848 32.2579ZM14.984 15.6102V22.2065C15.2595 22.2278 15.5141 22.2383 15.7479 22.2381H16.7983C17.5713 22.2356 18.3391 22.1137 19.0744 21.8768C19.705 21.6906 20.2685 21.3281 20.6978 20.8324C21.1116 20.3473 21.3185 19.6721 21.3185 18.8069C21.3353 18.1946 21.1751 17.5904 20.8569 17.0661C20.5224 16.559 20.0389 16.1667 19.4722 15.9426C18.7323 15.6566 17.9419 15.5221 17.1485 15.547C16.6391 15.547 16.1882 15.5522 15.7957 15.5627C15.4028 15.5736 15.1322 15.5894 14.984 15.6102Z" fill="#31A8FF"/>
<path d="M37.9554 21.007C37.3572 20.7014 36.7201 20.4778 36.0615 20.3424C35.3357 20.1768 34.5937 20.0919 33.8491 20.0891C33.4464 20.0783 33.0442 20.1263 32.6554 20.2316C32.408 20.2864 32.188 20.4265 32.0347 20.6272C31.9309 20.7877 31.8757 20.9745 31.8756 21.1652C31.8814 21.3503 31.9485 21.5284 32.0665 21.6716C32.2525 21.8879 32.4797 22.0654 32.735 22.1939C33.1888 22.4369 33.6565 22.6535 34.1356 22.8427C35.2039 23.1983 36.2247 23.6818 37.1755 24.2827C37.8232 24.6892 38.3592 25.2493 38.7353 25.9127C39.0516 26.5409 39.2099 27.2359 39.1969 27.9383C39.2159 28.8657 38.9494 29.7768 38.433 30.5494C37.88 31.3336 37.1121 31.9433 36.2206 32.3059C35.2547 32.7277 34.061 32.9388 32.6395 32.9389C31.7365 32.948 30.835 32.8631 29.9497 32.6857C29.2522 32.5585 28.5732 32.3459 27.9284 32.0527C27.8587 32.017 27.8008 31.9623 27.7614 31.895C27.7219 31.8278 27.7025 31.7507 27.7055 31.6729V28.2548C27.7017 28.2213 27.7071 28.1874 27.7211 28.1567C27.7351 28.1261 27.7573 28.0998 27.7852 28.0807C27.8125 28.0653 27.8439 28.0586 27.8752 28.0614C27.9064 28.0643 27.9361 28.0765 27.9602 28.0965C28.7218 28.543 29.5487 28.8687 30.4112 29.0618C31.1715 29.2513 31.9513 29.3521 32.735 29.3625C33.4776 29.3625 34.024 29.2675 34.3743 29.0776C34.5325 29.0057 34.6663 28.8896 34.7596 28.7436C34.8528 28.5975 34.9014 28.4277 34.8996 28.2548C34.8996 27.9808 34.7404 27.7171 34.4221 27.4635C34.1038 27.2103 33.4566 26.9044 32.4803 26.5456C31.4808 26.1998 30.5331 25.7207 29.6632 25.1215C29.041 24.6912 28.5286 24.1221 28.1671 23.4598C27.854 22.8362 27.6958 22.1471 27.7055 21.4501C27.7037 20.6127 27.9351 19.7911 28.374 19.0764C28.8744 18.2893 29.5929 17.6628 30.4431 17.2724C31.3767 16.8085 32.5438 16.5764 33.9447 16.5761C34.765 16.5695 35.5846 16.6277 36.3957 16.7501C36.9831 16.8242 37.5573 16.9786 38.1021 17.2091C38.1453 17.2214 38.185 17.2435 38.2182 17.2737C38.2513 17.304 38.277 17.3414 38.2931 17.3831C38.3146 17.4604 38.3253 17.5403 38.3249 17.6205V20.8171C38.3271 20.8543 38.3194 20.8914 38.3027 20.9247C38.2859 20.9581 38.2607 20.9864 38.2294 21.007C38.1869 21.0281 38.14 21.039 38.0924 21.039C38.0449 21.039 37.998 21.0281 37.9554 21.007Z" fill="#31A8FF"/>
</g>
</g>
<defs>
<clipPath id="clip0_203_126">
<rect width="48" height="46" fill="white"/>
</clipPath>
</defs>
</svg>
